# xmcd
#
# Track frame offsets: 
#        150
#        20158
#        34843
#        50473
#        61839
#        77020
#        90100
#        112362
#        130694
#        149890
#        169824
#        190132
#
# Disc length: 2873 seconds
#
# Revision: 0
# Processed by: cddbd v1.5.2PL0 Copyright (c) Steve Scherf et al.
# Submitted via: ExactAudioCopy v0.99pb4
#
DISCID=a60b370c
DTITLE=Miss Tess - Modern Vintage
DYEAR=2008
DGENRE=Folk/Rock
TTITLE0=When Tomorrow Comes
TTITLE1=Pokey McMumbles
TTITLE2=Stormy Baby
TTITLE3=I Don't Need That Man
TTITLE4=Ladykiller
TTITLE5=Streetcorner
TTITLE6=Mike's Blues
TTITLE7=I Only Really Miss You When I'm Stoned
TTITLE8=Child of the Devil
TTITLE9=I Got The Fever
TTITLE10=Under My Skin
TTITLE11=I'm on Top of the World
EXTD=
EXTT0=
EXTT1=
EXTT2=
EXTT3=
EXTT4=
EXTT5=
EXTT6=
EXTT7=
EXTT8=
EXTT9=
EXTT10=
EXTT11=
PLAYORDER=
